<?xml version="1.0" encoding="UTF-8"?><svg id="Layer_1" xmlns="http://www.w3.org/2000/svg" xmlns:xlink="http://www.w3.org/1999/xlink" viewBox="0 0 297 134"><defs><style>.cls-1{fill:url(#linear-gradient);}.cls-2{fill:#110057;}.cls-3{fill:url(#linear-gradient-8);}.cls-4{fill:url(#linear-gradient-9);}.cls-5{fill:url(#linear-gradient-3);}.cls-6{fill:url(#linear-gradient-4);}.cls-7{fill:url(#linear-gradient-2);}.cls-8{fill:url(#linear-gradient-6);}.cls-9{fill:url(#linear-gradient-7);}.cls-10{fill:url(#linear-gradient-5);}.cls-11{fill:url(#linear-gradient-10);}.cls-12{fill:url(#linear-gradient-11);}</style><linearGradient id="linear-gradient" x1="43.9279" y1="94.5427" x2="43.9279" y2="63.9623" gradientUnits="userSpaceOnUse"><stop offset=".1337" stop-color="#fa0000"/><stop offset=".4937" stop-color="#fe4d46"/><stop offset=".5622" stop-color="#ff5d55"/><stop offset=".639" stop-color="#ff645c"/><stop offset=".7547" stop-color="#ff7871"/><stop offset=".8523" stop-color="#ff8e88"/></linearGradient><linearGradient id="linear-gradient-2" x1="43.6728" y1="63.5674" x2="44.1762" y2="99.6136" gradientUnits="userSpaceOnUse"><stop offset=".1385" stop-color="#ff8e88"/><stop offset=".2109" stop-color="#ff857e"/><stop offset=".4319" stop-color="#ff6f67"/><stop offset=".6399" stop-color="#ff6159"/><stop offset=".8203" stop-color="#ff5d55"/></linearGradient><linearGradient id="linear-gradient-3" x1="43.2948" y1="96.2426" x2="52.6061" y2="80.115" gradientUnits="userSpaceOnUse"><stop offset=".1171" stop-color="#ff5d55"/><stop offset=".6893" stop-color="#ff9e9a"/><stop offset="1" stop-color="#ffbebb"/></linearGradient><linearGradient id="linear-gradient-4" x1="38.3374" y1="59.5684" x2="38.3374" y2="44.4316" gradientTransform="translate(8.8245 -5.4695) rotate(9.2175)" gradientUnits="userSpaceOnUse"><stop offset="0" stop-color="#fa0000"/><stop offset=".1572" stop-color="#fb2827"/><stop offset=".3262" stop-color="#fc4d49"/><stop offset=".4962" stop-color="#fd6965"/><stop offset=".6655" stop-color="#fe7d78"/><stop offset=".8338" stop-color="#fe8984"/><stop offset="1" stop-color="#ff8e88"/></linearGradient><linearGradient id="linear-gradient-5" x1="59.0859" y1="61.3629" x2="77.6658" y2="35.7174" gradientUnits="userSpaceOnUse"><stop offset=".4349" stop-color="#f04"/><stop offset=".4485" stop-color="#fe0546"/><stop offset=".6064" stop-color="#fe3e64"/><stop offset=".7416" stop-color="#fd6879"/><stop offset=".8473" stop-color="#fd8287"/><stop offset=".9106" stop-color="#fd8c8c"/></linearGradient><linearGradient id="linear-gradient-6" x1="71.7672" y1="37.0266" x2="58.7005" y2="59.6588" gradientUnits="userSpaceOnUse"><stop offset=".1838" stop-color="#fb4d4d"/><stop offset=".2521" stop-color="#fb5e5e"/><stop offset=".4055" stop-color="#fd817e"/><stop offset=".551" stop-color="#fe9996"/><stop offset=".6838" stop-color="#fea8a5"/><stop offset=".7925" stop-color="#ffaeaa"/></linearGradient><linearGradient id="linear-gradient-7" x1="67.0314" y1="46.3824" x2="63.0545" y2="74.6796" gradientUnits="userSpaceOnUse"><stop offset="0" stop-color="#fa0000"/><stop offset=".0469" stop-color="#fa100e"/><stop offset=".2786" stop-color="#ff5d55"/><stop offset=".6723" stop-color="#ff746d"/><stop offset=".9156" stop-color="#ff7d77"/></linearGradient><linearGradient id="linear-gradient-8" x1="74.6628" y1="39.5442" x2="71.3477" y2="102.8018" gradientUnits="userSpaceOnUse"><stop offset=".025" stop-color="#fb4d4d"/><stop offset=".0346" stop-color="#fb5151"/><stop offset=".0919" stop-color="#fc6765"/><stop offset=".1588" stop-color="#fd7874"/><stop offset=".2406" stop-color="#fe857f"/><stop offset=".3531" stop-color="#fe8c86"/><stop offset=".64" stop-color="#ff8e88"/><stop offset=".6934" stop-color="#ff7b7f"/><stop offset=".801" stop-color="#ff4b68"/><stop offset=".95" stop-color="#f04"/></linearGradient><linearGradient id="linear-gradient-9" x1="61.7304" y1="84.8477" x2="90.398" y2="84.8477" gradientUnits="userSpaceOnUse"><stop offset=".2072" stop-color="#f04"/><stop offset=".2854" stop-color="#fb0659"/><stop offset=".4477" stop-color="#f11690"/><stop offset=".6784" stop-color="#e22fe8"/><stop offset=".7352" stop-color="#df36ff"/></linearGradient><linearGradient id="linear-gradient-10" x1="76.0643" y1="72.8017" x2="76.0643" y2="103" gradientUnits="userSpaceOnUse"><stop offset=".4508" stop-color="#8c00cd"/><stop offset=".7319" stop-color="#cb29f3"/><stop offset=".8121" stop-color="#df36ff"/></linearGradient><linearGradient id="linear-gradient-11" x1="65.9562" y1="80.0817" x2="89.4273" y2="66.5306" gradientUnits="userSpaceOnUse"><stop offset=".101" stop-color="#ff8e88"/><stop offset=".5171" stop-color="#ff9994"/><stop offset=".6273" stop-color="#ff9e99"/><stop offset=".7057" stop-color="#fe9a96"/><stop offset=".7651" stop-color="#fe918c"/><stop offset=".8181" stop-color="#fe817d"/><stop offset=".8675" stop-color="#fd6a66"/><stop offset=".9143" stop-color="#fc4c4a"/><stop offset=".9586" stop-color="#fb2827"/><stop offset="1" stop-color="#fa0000"/></linearGradient></defs><path class="cls-2" d="M161.8719,83.4133h2.29v7.4813c.6877-1.5023,1.9084-2.7744,3.9448-2.7744,3.4604,0,4.7579,2.2648,4.7579,4.9365v8.5245h-2.29v-8.2952c0-2.3159-.9923-3.2317-2.774-3.2317-1.9337,0-3.6387,1.6281-3.6387,5.0633v6.4636h-2.29v-18.168Zm-3.0024,16.2853c-1.0183,0-1.6803-.6363-1.6803-1.8071v-7.5825h2.5193v-1.8839h-2.5193v-4.096l-2.2387,1.0172v3.0788h-1.9595v1.8839h1.9595v7.7351c0,2.0363,1.1451,3.5372,3.6897,3.5372h1.1451v-1.8827h-.9159Zm-7.7105-16.2851h-2.2901v18.1679h2.2901v-18.1679Zm-10.7892,4.6813c-3.4351,0-5.0387,2.3923-5.3185,4.3007h2.29c.3053-1.4253,1.5019-2.3669,3.1045-2.3669,1.8831,0,2.926,.7892,2.926,1.8831,0,1.0948-.5595,1.5779-2.2901,1.8827-1.9844,.3572-6.6663,.4843-6.6663,4.1985,0,1.8839,1.4503,3.8936,4.6055,3.8936,2.9264,0,4.0208-1.7048,4.326-2.7228h.0249v.5096c0,.7376,0,1.2717,.0515,1.9084h2.4425c-.1021-.6367-.2039-1.6796-.2039-2.6717v-5.6496c0-2.0352-.4577-5.1655-5.2921-5.1655Zm-.9415,11.9343c-1.6036,0-2.7485-.7891-2.7485-2.0363,0-1.3232,1.1449-1.8827,3.0533-2.2132,2.8504-.5088,3.4103-1.2723,3.6644-2.1377l.0257,1.8328c0,3.2569-1.9848,4.5544-3.9949,4.5544Zm-12.9787,1.8575c2.926,0,5.1401-1.4247,5.8781-4.2243h-2.2393c-.4577,1.6289-1.9339,2.3159-3.6893,2.3159-2.3412,0-4.0204-1.6036-4.1989-4.3509h10.3316v-.4075c-.0516-3.384-1.5019-7.0996-6.1327-7.0996-3.7155,0-6.4131,2.85-6.4131,6.8193,0,4.1228,2.5708,6.9471,6.4636,6.9471Zm-4.2241-8.0921c.3056-2.2644,1.8067-3.7911,4.1736-3.7911,2.3407,0,3.6132,1.5009,3.8168,3.7911h-7.9904Zm-7.2529-10.3812v8.0408h-8.7528v-8.0408h-2.4173v18.168h2.4173v-8.0917h8.7528v8.0917h2.4177v-18.168h-2.4177Zm139.3752-19.6064h3.2059v2.2651c.7377-1.5267,1.9085-2.6211,3.9436-2.6211,3.4105,0,4.7337,2.2395,4.7337,5.4707v8.0407h-3.2569v-7.252c0-1.908-.5095-3.4097-2.3927-3.4097-1.7556,0-2.9509,1.5524-2.9509,4.7583v5.9035h-3.2827v-13.1553Zm-6.4896,13.1552h3.2827v-13.1553h-3.2827v13.1553Zm.0515-15.1144h3.384v-3.0535h-3.384v3.0535Zm-8.6275,1.5525c-3.4605,0-5.2668,2.2644-5.6484,4.4269h3.0792c.3305-1.2211,1.2975-1.9844,2.5949-1.9844,1.5011,0,2.418,.6109,2.418,1.6539,0,1.1196-.8145,1.3735-2.5193,1.6284-1.8328,.2804-6.158,.6363-6.158,4.2496,0,2.2133,1.7301,3.9435,4.6059,3.9435,2.4936,0,3.5876-1.3228,4.1217-2.3656h.0253v.6612c0,.4327,.0257,.9165,.1025,1.3485h3.2827c-.1793-.8389-.2549-2.188-.2549-3.2059v-4.7584c0-3.2316-1.5268-5.5977-5.6496-5.5977Zm-.7376,11.5011c-1.4757,0-2.2391-.7376-2.2391-1.6791,0-.9927,.7891-1.5268,2.5451-1.8827,1.9329-.3817,2.6204-.9673,2.9256-1.6036v1.1193c0,3.0535-1.5524,4.046-3.2316,4.046Zm-7.9897-.4829c-1.3996,0-1.7303-.8655-1.7303-2.3923v-5.7256h2.6461v-2.4936h-2.6461v-4.3767l-3.1813,1.3996v2.9771h-2.1119v2.4936h2.1119v6.1837c0,2.6464,.9167,4.5803,4.174,4.5291h1.5765v-2.5949h-.8389Zm-20.5103,2.5439h3.2827v-5.9035c0-3.2059,1.1953-4.7583,2.9509-4.7583,1.8831,0,2.3927,1.5017,2.3927,3.4097v7.252h3.2569v-8.0407c0-3.2312-1.3232-5.4707-4.7339-5.4707-2.0351,0-3.2059,1.0944-3.9435,2.6211v-2.2651h-3.2059v13.1553Zm-14.9632-5.1143c0,3.2316,1.3485,5.4701,4.7327,5.4701,2.0351,0,3.2316-1.0935,3.9447-2.6203v2.2644h3.2059v-13.1553h-3.2827v5.9033c0,3.2059-1.1704,4.7584-2.9521,4.7584-1.8573,0-2.3915-1.5013-2.3915-3.4099v-7.2519h-3.2569v8.0411Zm-15.9295-1.4757c0,4.2487,3.0535,6.9716,6.8961,6.9716s6.8703-2.7229,6.8703-6.9716c0-4.2243-3.0289-6.9215-6.8703-6.9215s-6.8961,2.6972-6.8961,6.9215Zm6.8961,4.3767c-2.2399,0-3.6897-1.9852-3.6897-4.3767,0-2.3669,1.4499-4.3513,3.6897-4.3513s3.6888,1.9844,3.6888,4.3513c0,2.3915-1.4499,4.3767-3.6888,4.3767Zm-28.0436,2.2133h3.2827v-5.9035c0-2.5704,.5084-4.7583,2.5447-4.7583,1.8063,0,2.1377,1.5017,2.1377,3.4097v7.252h3.1548v-6.2851c0-2.7483,.9925-4.3767,2.5193-4.3767,1.6288,0,2.1376,1.5017,2.1376,3.4097v7.252h3.2313v-8.0407c0-3.2312-1.6281-5.4707-4.9361-5.4707-1.9084,0-2.9264,.8905-3.6644,2.4679-.662-1.7045-1.8827-2.4679-3.6644-2.4679-1.9084,0-3.1299,1.2721-3.5365,2.5189v-2.1629h-3.2067v13.1553Zm-5.7765-13.1556h-3.2064v13.1553h3.2828v-5.9287c0-3.2059,1.1703-3.8421,2.3403-4.1217,.4589-.1781,1.4005-.1781,1.5783-.1781v-3.0792c-1.8324,.0257-3.2573,.7123-3.9949,2.4683v-2.3159Zm-12.0365,13.5627c3.1805,0,5.4707-1.6533,6.2597-4.2748h-3.2569c-.4839,1.1451-1.6543,1.6288-3.0285,1.6288-1.9084,0-3.3335-1.3232-3.5876-3.4351h10.0767v-.6363c-.0259-3.8929-2.036-7.2267-6.438-7.2267-3.9185,0-6.7685,2.9011-6.7685,6.9213,0,4.1985,2.774,7.0227,6.7432,7.0227Zm-3.588-8.2699c.3053-1.908,1.6032-3.1805,3.5623-3.1805,2.1119,0,3.1303,1.476,3.3337,3.1805h-6.896Zm-5.4967,5.3189c-1.3993,0-1.7303-.8655-1.7303-2.3923v-5.7256h2.6464v-2.4936h-2.6464v-4.3767l-3.1809,1.3996v2.9771h-2.112v2.4936h2.112v6.1837c0,2.6464,.9161,4.5803,4.1735,4.5291h1.5771v-2.5949h-.8393Zm-20.5104,2.5439h3.2827v-5.9035c0-3.2059,1.1957-4.7583,2.9517-4.7583,1.8827,0,2.3919,1.5017,2.3919,3.4097v7.252h3.2569v-8.0407c0-3.2312-1.3232-5.4707-4.7329-5.4707-2.0356,0-3.206,1.0944-3.944,2.6211v-2.2651h-3.2063v13.1553Zm-3.3845-18.168h-3.4093v18.1679h3.4093v-18.1679Z"/><g><g><path class="cls-1" d="M55.6243,71.909l-11.181,16.8281v-18.9886c0-3.3723-2.7337-6.106-6.106-6.106s-6.106,2.7337-6.106,6.106v21.9491c0,6.2421,5.0603,11.3024,11.3024,11.3024,3.99,0,7.4971-2.0675,9.5084-5.1897l2.5823-3.8868v-22.0145Z"/><path class="cls-7" d="M55.6243,71.909l-13.8341,20.8212c-.3421,.4933-.9124,.8163-1.5581,.8163-1.0465,0-1.8948-.8483-1.8948-1.8948v-28.0092c-3.3722,0-6.106,2.7337-6.106,6.106v21.949c0,4.4022,3.5687,7.9708,7.9708,7.9708,2.7164,0,5.1155-1.3588,6.5545-3.4339l8.8678-13.3466v-10.9789Z"/><path class="cls-5" d="M55.6243,71.909l-13.8341,20.8212c-.3421,.4933-.9124,.8163-1.5581,.8163l-.03,6.1218c2.7164,0,5.1155-1.3588,6.5545-3.4339l8.8678-13.3466v-10.9789Z"/><circle class="cls-6" cx="38.3374" cy="52" r="7.5684" transform="translate(-7.8345 6.8124) rotate(-9.2175)"/></g><g><path class="cls-10" d="M55.6243,45.1427c.2409-7.8517,6.6817-14.1427,14.5918-14.1427,8.0627,0,14.5988,6.5361,14.5988,14.5988,0,3.2007-1.03,6.1608-2.7767,8.567l-6.4245,9.6701c-.849-.1274-1.718-.1935-2.6025-.1935-9.6025,0-17.3868,7.7843-17.3868,17.3868V45.1427Zm16.9789,.4953c0-1.3184-1.0688-2.3872-2.3872-2.3872s-2.3872,1.0688-2.3872,2.3872v7.9027s4.4372-6.6789,4.4372-6.6789c.2141-.3579,.3372-.7765,.3372-1.2239Z"/><path class="cls-8" d="M67.9053,64.4043c-.0255,.0078-.0509,.0157-.0763,.0236v-10.8871s4.4372-6.6789,4.4372-6.6789c.2141-.3579,.3372-.7765,.3372-1.2239,0-3.0045-2.4357-5.4402-5.4402-5.4402s-5.4402,2.4357-5.4402,5.4402v22.1668c-3.7324,3.189-6.0985,7.9304-6.0985,13.2245V45.3655c0-6.2565,5.0718-11.3284,11.3283-11.3284s11.3284,5.0719,11.3284,11.3284c0,2.3264-.7013,4.4891-1.9039,6.288l.0357-.0538-8.5076,12.8045Z"/><path class="cls-9" d="M67.8289,64.4279c-2.2705,.708-4.3412,1.869-6.1064,3.3772l.0004-22.1671c0-3.0045,2.4357-5.4402,5.4402-5.4402s5.4402,2.4357,5.4402,5.4402c0-1.3184-1.0688-2.3872-2.3872-2.3872s-2.3872,1.0688-2.3872,2.3872v7.9027s0,10.8871,0,10.8871Z"/></g><g><path class="cls-3" d="M66.953,40.2018c-2.9071,.1104-5.2301,2.502-5.2301,5.4362v22.1667c3.0376-2.5952,6.9799-4.1622,11.2883-4.1622,9.6025,0,17.3868,7.7843,17.3868,17.3868v15.8647c0,3.3723-2.7338,6.106-6.106,6.106s-6.106-2.7337-6.106-6.106l-.0002-15.8647c0-2.8578-2.3167-5.1746-5.1746-5.1746s-5.1746,2.3167-5.1746,5.1746v15.8647c-.0001,3.3723-2.7339,6.106-6.1061,6.106s-6.106-2.7337-6.106-6.106l-.0002-51.5285c0-6.2565,5.0719-11.3284,11.3284-11.3284l.0003,6.1647Z"/><path class="cls-4" d="M84.292,103l-.0002-21.9707c0-4.544-3.6836-8.2276-8.2276-8.2276s-8.2276,3.6836-8.2276,8.2276v15.8647c-.0001,3.3723-2.7339,6.106-6.1061,6.106v-21.9707c0-7.9163,6.4174-14.3338,14.3337-14.3338s14.3338,6.4175,14.3338,14.3338v15.8647c0,3.3723-2.7338,6.106-6.106,6.106Z"/><path class="cls-11" d="M84.292,103l-.0002-21.9707c0-4.544-3.6836-8.2276-8.2276-8.2276s-8.2276,3.6836-8.2276,8.2276c0-2.8579,2.3167-5.1746,5.1746-5.1746s5.1746,2.3167,5.1746,5.1746l.0002,15.8647c0,3.3723,2.7337,6.106,6.106,6.106Z"/><path class="cls-12" d="M90.398,81.0293c0-7.9163-6.4175-14.3338-14.3338-14.3338s-14.3338,6.4175-14.3338,14.3338l-.0074-13.2246c3.0375-2.5952,6.9798-4.1622,11.2882-4.1622,9.6025,0,17.3868,7.7843,17.3868,17.3868Z"/></g></g></svg>